<mxfile host="app.diagrams.net" agent="Mozilla/5.0 (Windows NT 10.0; Win64; x64) AppleWebKit/537.36 (KHTML, like Gecko) Chrome/131.0.0.0 Safari/537.36" version="25.0.1">
  <diagram name="Page-1" id="-wOqdWyo2ohQMeNRjEGU">
    <mxGraphModel dx="1050" dy="1753" grid="1" gridSize="10" guides="1" tooltips="1" connect="1" arrows="1" fold="1" page="1" pageScale="1" pageWidth="850" pageHeight="1100" math="0" shadow="0">
      <root>
        <mxCell id="0" />
        <mxCell id="1" parent="0" />
        <mxCell id="6j-_WIroTuujylRqxmZy-3" style="edgeStyle=orthogonalEdgeStyle;rounded=0;orthogonalLoop=1;jettySize=auto;html=1;entryX=0;entryY=0.5;entryDx=0;entryDy=0;" parent="1" source="6j-_WIroTuujylRqxmZy-1" target="6j-_WIroTuujylRqxmZy-2" edge="1">
          <mxGeometry relative="1" as="geometry" />
        </mxCell>
        <mxCell id="6j-_WIroTuujylRqxmZy-1" value="DATA (PDF files)" style="rounded=0;whiteSpace=wrap;html=1;" parent="1" vertex="1">
          <mxGeometry x="10" y="260" width="120" height="80" as="geometry" />
        </mxCell>
        <mxCell id="6j-_WIroTuujylRqxmZy-9" style="edgeStyle=orthogonalEdgeStyle;rounded=0;orthogonalLoop=1;jettySize=auto;html=1;" parent="1" source="6j-_WIroTuujylRqxmZy-2" target="6j-_WIroTuujylRqxmZy-5" edge="1">
          <mxGeometry relative="1" as="geometry" />
        </mxCell>
        <mxCell id="6j-_WIroTuujylRqxmZy-10" style="edgeStyle=orthogonalEdgeStyle;rounded=0;orthogonalLoop=1;jettySize=auto;html=1;entryX=0;entryY=0.5;entryDx=0;entryDy=0;" parent="1" source="6j-_WIroTuujylRqxmZy-2" target="6j-_WIroTuujylRqxmZy-4" edge="1">
          <mxGeometry relative="1" as="geometry" />
        </mxCell>
        <mxCell id="6j-_WIroTuujylRqxmZy-11" style="edgeStyle=orthogonalEdgeStyle;rounded=0;orthogonalLoop=1;jettySize=auto;html=1;entryX=0;entryY=0.5;entryDx=0;entryDy=0;" parent="1" source="6j-_WIroTuujylRqxmZy-2" target="6j-_WIroTuujylRqxmZy-6" edge="1">
          <mxGeometry relative="1" as="geometry" />
        </mxCell>
        <mxCell id="6j-_WIroTuujylRqxmZy-2" value="Text data extraction from PDF data (Images, Tables, Text)" style="rounded=0;whiteSpace=wrap;html=1;" parent="1" vertex="1">
          <mxGeometry x="190" y="260" width="120" height="80" as="geometry" />
        </mxCell>
        <mxCell id="6j-_WIroTuujylRqxmZy-20" style="edgeStyle=orthogonalEdgeStyle;rounded=0;orthogonalLoop=1;jettySize=auto;html=1;entryX=0;entryY=0.75;entryDx=0;entryDy=0;" parent="1" source="6j-_WIroTuujylRqxmZy-4" target="6j-_WIroTuujylRqxmZy-18" edge="1">
          <mxGeometry relative="1" as="geometry" />
        </mxCell>
        <mxCell id="6j-_WIroTuujylRqxmZy-4" value="Semantic Chunking" style="rounded=1;whiteSpace=wrap;html=1;" parent="1" vertex="1">
          <mxGeometry x="390" y="170" width="140" height="60" as="geometry" />
        </mxCell>
        <mxCell id="6j-_WIroTuujylRqxmZy-22" style="edgeStyle=orthogonalEdgeStyle;rounded=0;orthogonalLoop=1;jettySize=auto;html=1;entryX=0;entryY=0.75;entryDx=0;entryDy=0;" parent="1" source="6j-_WIroTuujylRqxmZy-5" target="6j-_WIroTuujylRqxmZy-18" edge="1">
          <mxGeometry relative="1" as="geometry" />
        </mxCell>
        <mxCell id="6j-_WIroTuujylRqxmZy-5" value="Semantic Chunking" style="rounded=1;whiteSpace=wrap;html=1;" parent="1" vertex="1">
          <mxGeometry x="390" y="270" width="140" height="60" as="geometry" />
        </mxCell>
        <mxCell id="6j-_WIroTuujylRqxmZy-24" style="edgeStyle=orthogonalEdgeStyle;rounded=0;orthogonalLoop=1;jettySize=auto;html=1;entryX=0;entryY=0.75;entryDx=0;entryDy=0;" parent="1" source="6j-_WIroTuujylRqxmZy-6" target="6j-_WIroTuujylRqxmZy-18" edge="1">
          <mxGeometry relative="1" as="geometry" />
        </mxCell>
        <mxCell id="6j-_WIroTuujylRqxmZy-25" style="edgeStyle=orthogonalEdgeStyle;rounded=0;orthogonalLoop=1;jettySize=auto;html=1;" parent="1" source="6j-_WIroTuujylRqxmZy-6" target="6j-_WIroTuujylRqxmZy-19" edge="1">
          <mxGeometry relative="1" as="geometry" />
        </mxCell>
        <mxCell id="6j-_WIroTuujylRqxmZy-6" value="Semantic Chunking" style="rounded=1;whiteSpace=wrap;html=1;" parent="1" vertex="1">
          <mxGeometry x="390" y="375" width="140" height="60" as="geometry" />
        </mxCell>
        <mxCell id="6j-_WIroTuujylRqxmZy-18" value="Sparse Vector" style="rounded=1;whiteSpace=wrap;html=1;" parent="1" vertex="1">
          <mxGeometry x="610" y="190" width="120" height="60" as="geometry" />
        </mxCell>
        <mxCell id="6j-_WIroTuujylRqxmZy-19" value="Dense Vector" style="rounded=1;whiteSpace=wrap;html=1;" parent="1" vertex="1">
          <mxGeometry x="610" y="345" width="120" height="60" as="geometry" />
        </mxCell>
        <mxCell id="6j-_WIroTuujylRqxmZy-78" style="edgeStyle=orthogonalEdgeStyle;rounded=0;orthogonalLoop=1;jettySize=auto;html=1;" parent="1" source="6j-_WIroTuujylRqxmZy-26" edge="1">
          <mxGeometry relative="1" as="geometry">
            <mxPoint x="1000" y="220" as="targetPoint" />
          </mxGeometry>
        </mxCell>
        <mxCell id="6j-_WIroTuujylRqxmZy-26" value="Elastic Search" style="strokeWidth=2;html=1;shape=mxgraph.flowchart.database;whiteSpace=wrap;" parent="1" vertex="1">
          <mxGeometry x="820" y="165" width="130" height="110" as="geometry" />
        </mxCell>
        <mxCell id="6j-_WIroTuujylRqxmZy-79" style="edgeStyle=orthogonalEdgeStyle;rounded=0;orthogonalLoop=1;jettySize=auto;html=1;" parent="1" source="6j-_WIroTuujylRqxmZy-28" edge="1">
          <mxGeometry relative="1" as="geometry">
            <mxPoint x="1000" y="375" as="targetPoint" />
          </mxGeometry>
        </mxCell>
        <mxCell id="6j-_WIroTuujylRqxmZy-28" value="Pinecone Vector Database" style="strokeWidth=2;html=1;shape=mxgraph.flowchart.database;whiteSpace=wrap;" parent="1" vertex="1">
          <mxGeometry x="820" y="320" width="130" height="110" as="geometry" />
        </mxCell>
        <mxCell id="6j-_WIroTuujylRqxmZy-31" style="edgeStyle=orthogonalEdgeStyle;rounded=0;orthogonalLoop=1;jettySize=auto;html=1;exitX=1;exitY=0.5;exitDx=0;exitDy=0;entryX=0;entryY=0.5;entryDx=0;entryDy=0;entryPerimeter=0;" parent="1" source="6j-_WIroTuujylRqxmZy-19" target="6j-_WIroTuujylRqxmZy-28" edge="1">
          <mxGeometry relative="1" as="geometry" />
        </mxCell>
        <mxCell id="6j-_WIroTuujylRqxmZy-32" style="edgeStyle=orthogonalEdgeStyle;rounded=0;orthogonalLoop=1;jettySize=auto;html=1;exitX=1;exitY=0.5;exitDx=0;exitDy=0;entryX=0;entryY=0.5;entryDx=0;entryDy=0;entryPerimeter=0;" parent="1" source="6j-_WIroTuujylRqxmZy-18" target="6j-_WIroTuujylRqxmZy-26" edge="1">
          <mxGeometry relative="1" as="geometry" />
        </mxCell>
        <mxCell id="6j-_WIroTuujylRqxmZy-39" style="edgeStyle=orthogonalEdgeStyle;rounded=0;orthogonalLoop=1;jettySize=auto;html=1;entryX=1;entryY=0.5;entryDx=0;entryDy=0;" parent="1" source="6j-_WIroTuujylRqxmZy-37" target="6j-_WIroTuujylRqxmZy-38" edge="1">
          <mxGeometry relative="1" as="geometry" />
        </mxCell>
        <mxCell id="6j-_WIroTuujylRqxmZy-37" value="User Query" style="ellipse;whiteSpace=wrap;html=1;" parent="1" vertex="1">
          <mxGeometry x="1570" y="70" width="120" height="80" as="geometry" />
        </mxCell>
        <mxCell id="MZA3SKQepv408EE6sTC5-8" style="edgeStyle=orthogonalEdgeStyle;rounded=0;orthogonalLoop=1;jettySize=auto;html=1;" edge="1" parent="1" source="6j-_WIroTuujylRqxmZy-38">
          <mxGeometry relative="1" as="geometry">
            <mxPoint x="1415" y="280" as="targetPoint" />
          </mxGeometry>
        </mxCell>
        <mxCell id="6j-_WIroTuujylRqxmZy-38" value="Query &lt;br&gt;Re-Writing(llm call)" style="whiteSpace=wrap;html=1;aspect=fixed;" parent="1" vertex="1">
          <mxGeometry x="1360" y="55" width="110" height="110" as="geometry" />
        </mxCell>
        <mxCell id="6j-_WIroTuujylRqxmZy-59" style="edgeStyle=orthogonalEdgeStyle;rounded=0;orthogonalLoop=1;jettySize=auto;html=1;entryX=1;entryY=0.5;entryDx=0;entryDy=0;exitX=0;exitY=0.5;exitDx=0;exitDy=0;" parent="1" source="6j-_WIroTuujylRqxmZy-38" target="6j-_WIroTuujylRqxmZy-42" edge="1">
          <mxGeometry relative="1" as="geometry">
            <mxPoint x="1260" y="110" as="sourcePoint" />
          </mxGeometry>
        </mxCell>
        <mxCell id="6j-_WIroTuujylRqxmZy-50" style="edgeStyle=orthogonalEdgeStyle;rounded=0;orthogonalLoop=1;jettySize=auto;html=1;" parent="1" source="6j-_WIroTuujylRqxmZy-42" edge="1">
          <mxGeometry relative="1" as="geometry">
            <mxPoint x="1000" y="290" as="targetPoint" />
          </mxGeometry>
        </mxCell>
        <mxCell id="6j-_WIroTuujylRqxmZy-42" value="Hybrid Search" style="rounded=0;whiteSpace=wrap;html=1;" parent="1" vertex="1">
          <mxGeometry x="1020" y="60" width="180" height="100" as="geometry" />
        </mxCell>
        <mxCell id="6j-_WIroTuujylRqxmZy-47" value="" style="endArrow=none;html=1;rounded=0;" parent="1" edge="1">
          <mxGeometry width="50" height="50" relative="1" as="geometry">
            <mxPoint x="1000" y="380" as="sourcePoint" />
            <mxPoint x="1000" y="210" as="targetPoint" />
            <Array as="points">
              <mxPoint x="1000" y="370" />
              <mxPoint x="1000" y="380" />
            </Array>
          </mxGeometry>
        </mxCell>
        <mxCell id="6j-_WIroTuujylRqxmZy-77" style="edgeStyle=orthogonalEdgeStyle;rounded=0;orthogonalLoop=1;jettySize=auto;html=1;entryX=0;entryY=0.5;entryDx=0;entryDy=0;" parent="1" source="6j-_WIroTuujylRqxmZy-51" target="6j-_WIroTuujylRqxmZy-53" edge="1">
          <mxGeometry relative="1" as="geometry" />
        </mxCell>
        <mxCell id="6j-_WIroTuujylRqxmZy-51" value="Relevant Documents" style="rounded=0;whiteSpace=wrap;html=1;" parent="1" vertex="1">
          <mxGeometry x="1120" y="350" width="100" height="120" as="geometry" />
        </mxCell>
        <mxCell id="6j-_WIroTuujylRqxmZy-52" value="" style="endArrow=classic;html=1;rounded=0;entryX=0;entryY=0.5;entryDx=0;entryDy=0;" parent="1" target="6j-_WIroTuujylRqxmZy-51" edge="1">
          <mxGeometry width="50" height="50" relative="1" as="geometry">
            <mxPoint x="1000" y="290" as="sourcePoint" />
            <mxPoint x="1200" y="210" as="targetPoint" />
          </mxGeometry>
        </mxCell>
        <mxCell id="6j-_WIroTuujylRqxmZy-56" style="edgeStyle=orthogonalEdgeStyle;rounded=0;orthogonalLoop=1;jettySize=auto;html=1;entryX=0;entryY=0.5;entryDx=0;entryDy=0;" parent="1" source="6j-_WIroTuujylRqxmZy-53" target="6j-_WIroTuujylRqxmZy-55" edge="1">
          <mxGeometry relative="1" as="geometry" />
        </mxCell>
        <mxCell id="6j-_WIroTuujylRqxmZy-53" value="Re-Ranking" style="rounded=0;whiteSpace=wrap;html=1;" parent="1" vertex="1">
          <mxGeometry x="1280" y="380" width="120" height="60" as="geometry" />
        </mxCell>
        <mxCell id="6j-_WIroTuujylRqxmZy-81" style="edgeStyle=orthogonalEdgeStyle;rounded=0;orthogonalLoop=1;jettySize=auto;html=1;entryX=0;entryY=0.5;entryDx=0;entryDy=0;" parent="1" source="6j-_WIroTuujylRqxmZy-55" target="6j-_WIroTuujylRqxmZy-58" edge="1">
          <mxGeometry relative="1" as="geometry" />
        </mxCell>
        <mxCell id="6j-_WIroTuujylRqxmZy-55" value="LLM" style="rounded=1;whiteSpace=wrap;html=1;" parent="1" vertex="1">
          <mxGeometry x="1460" y="380" width="120" height="60" as="geometry" />
        </mxCell>
        <mxCell id="6j-_WIroTuujylRqxmZy-58" value="&lt;font style=&quot;font-size: 16px;&quot;&gt;Final Answer&lt;/font&gt;" style="text;html=1;align=center;verticalAlign=middle;whiteSpace=wrap;rounded=0;" parent="1" vertex="1">
          <mxGeometry x="1640" y="370" width="60" height="80" as="geometry" />
        </mxCell>
        <mxCell id="6j-_WIroTuujylRqxmZy-60" value="fitz,pytesseract,&lt;br&gt;Image,tabula" style="text;html=1;align=center;verticalAlign=middle;whiteSpace=wrap;rounded=0;" parent="1" vertex="1">
          <mxGeometry x="195" y="340" width="110" height="35" as="geometry" />
        </mxCell>
        <mxCell id="6j-_WIroTuujylRqxmZy-63" value="&lt;div&gt;&lt;font&gt;from langchain_experimental.text_splitter&amp;nbsp;&lt;/font&gt;&lt;/div&gt;&lt;div&gt;&lt;font&gt;import SemanticChunker&lt;/font&gt;&lt;/div&gt;" style="text;html=1;align=center;verticalAlign=middle;whiteSpace=wrap;rounded=0;" parent="1" vertex="1">
          <mxGeometry x="350" y="430" width="240" height="60" as="geometry" />
        </mxCell>
        <mxCell id="6j-_WIroTuujylRqxmZy-64" value="&lt;div&gt;from langchain_community.retrievers&amp;nbsp;&lt;/div&gt;&lt;div&gt;import ElasticSearchBM25Retrieve&lt;/div&gt;" style="text;html=1;align=center;verticalAlign=middle;whiteSpace=wrap;rounded=0;" parent="1" vertex="1">
          <mxGeometry x="610" y="140" width="110" height="30" as="geometry" />
        </mxCell>
        <mxCell id="6j-_WIroTuujylRqxmZy-65" value="&lt;div&gt;from langchain.embeddings&amp;nbsp;&lt;/div&gt;&lt;div&gt;import OpenAIEmbeddings&lt;/div&gt;" style="text;html=1;align=center;verticalAlign=middle;whiteSpace=wrap;rounded=0;" parent="1" vertex="1">
          <mxGeometry x="650" y="430" width="60" height="30" as="geometry" />
        </mxCell>
        <mxCell id="6j-_WIroTuujylRqxmZy-66" style="edgeStyle=orthogonalEdgeStyle;rounded=0;orthogonalLoop=1;jettySize=auto;html=1;exitX=0.5;exitY=1;exitDx=0;exitDy=0;" parent="1" source="6j-_WIroTuujylRqxmZy-65" target="6j-_WIroTuujylRqxmZy-65" edge="1">
          <mxGeometry relative="1" as="geometry" />
        </mxCell>
        <mxCell id="6j-_WIroTuujylRqxmZy-67" value="ensemble_retriever = EnsembleRetriever(bm25_retriever, vector_retriever, alpha=0.5)" style="text;html=1;align=center;verticalAlign=middle;whiteSpace=wrap;rounded=0;" parent="1" vertex="1">
          <mxGeometry x="1070" y="20" width="60" height="30" as="geometry" />
        </mxCell>
        <mxCell id="6j-_WIroTuujylRqxmZy-68" value="Query rewriting aims to refine or rephrase the original user query to make it more effective for retrieval" style="text;html=1;align=center;verticalAlign=middle;whiteSpace=wrap;rounded=0;" parent="1" vertex="1">
          <mxGeometry x="1335" y="10" width="160" height="30" as="geometry" />
        </mxCell>
        <mxCell id="6j-_WIroTuujylRqxmZy-70" value="Streamlit GUI" style="text;html=1;align=center;verticalAlign=middle;whiteSpace=wrap;rounded=0;" parent="1" vertex="1">
          <mxGeometry x="1570" y="20" width="120" height="50" as="geometry" />
        </mxCell>
        <mxCell id="6j-_WIroTuujylRqxmZy-73" value="&lt;div&gt;import cohere&lt;/div&gt;&lt;div&gt;co = cohere.Client(API_KEY)&lt;/div&gt;&lt;div&gt;model=&#39;rerank-english-v2.0&#39;&lt;/div&gt;" style="text;html=1;align=center;verticalAlign=middle;whiteSpace=wrap;rounded=0;" parent="1" vertex="1">
          <mxGeometry x="1250" y="435" width="180" height="60" as="geometry" />
        </mxCell>
        <mxCell id="6j-_WIroTuujylRqxmZy-74" value="GPT4o" style="text;html=1;align=center;verticalAlign=middle;whiteSpace=wrap;rounded=0;" parent="1" vertex="1">
          <mxGeometry x="1490" y="440" width="60" height="30" as="geometry" />
        </mxCell>
        <mxCell id="MZA3SKQepv408EE6sTC5-6" value="" style="endArrow=classic;startArrow=classic;html=1;rounded=0;exitX=0.377;exitY=-0.023;exitDx=0;exitDy=0;exitPerimeter=0;" edge="1" parent="1" source="6j-_WIroTuujylRqxmZy-53">
          <mxGeometry width="50" height="50" relative="1" as="geometry">
            <mxPoint x="1320" y="290" as="sourcePoint" />
            <mxPoint x="1520" y="380" as="targetPoint" />
            <Array as="points">
              <mxPoint x="1325" y="280" />
              <mxPoint x="1520" y="280" />
            </Array>
          </mxGeometry>
        </mxCell>
      </root>
    </mxGraphModel>
  </diagram>
</mxfile>
